<svg width="64" height="64" viewBox="0 0 64 64" fill="none" xmlns="http://www.w3.org/2000/svg">
<path fill-rule="evenodd" clip-rule="evenodd" d="M58.6673 10.6665C58.6673 15.0848 55.0856 18.6665 50.6673 18.6665C47.1841 18.6665 44.2208 16.4404 43.1225 13.3332H18.6673C14.249 13.3332 10.6673 16.9149 10.6673 21.3332V22.0245C10.6673 26.4428 14.249 30.0245 18.6673 30.0245H45.6797C52.8526 30.0245 58.6673 35.8393 58.6673 43.0122C58.6673 50.1851 52.8526 55.9998 45.6797 55.9998H41.1056L41.8867 56.7809C42.9281 57.8223 42.9281 59.5107 41.8867 60.5521C40.8453 61.5935 39.1568 61.5935 38.1154 60.5521L30.8965 53.3332L38.1154 46.1142C39.1568 45.0728 40.8453 45.0728 41.8867 46.1142C42.9281 47.1556 42.9281 48.8441 41.8867 49.8855L41.1056 50.6665H45.6797C49.907 50.6665 53.334 47.2395 53.334 43.0122C53.334 38.7848 49.907 35.3579 45.6797 35.3579H18.6673C11.3035 35.3579 5.33398 29.3883 5.33398 22.0245V21.3332C5.33398 13.9694 11.3035 7.99984 18.6673 7.99984H43.1225C44.2208 4.89266 47.1841 2.6665 50.6673 2.6665C55.0856 2.6665 58.6673 6.24823 58.6673 10.6665ZM13.334 61.3332C17.7523 61.3332 21.334 57.7514 21.334 53.3332C21.334 48.9149 17.7523 45.3332 13.334 45.3332C8.91571 45.3332 5.33398 48.9149 5.33398 53.3332C5.33398 57.7514 8.91571 61.3332 13.334 61.3332Z" fill="#7C7E92" fill-opacity="0.56"/>
</svg>
